<svg class="svg-icon" style="fill: currentColor; width: 1em; height: 1em; vertical-align: middle; overflow: hidden"
    viewBox="0 0 1024 1024" version="1.1" xmlns="http://www.w3.org/2000/svg">
    <path
        d="M 512.8 0 c 282.8 0 512 229.2 512 512 s -229.2 512 -512 512 s -512 -229.2 -512 -512 s 229.2 -512 512 -512 z"
        fill="#93d3e8" />
    <path
        d="M 942.9 768 h -20.5 v 51.2 a 517.8 517.8 0 0 0 20.5 -29.6 V 768 z m -102.4 -102.4 h -20.5 v 256 a 514.7 514.7 0 0 0 20.5 -16.3 V 665.6 z m 51.2 190.8 V 716.8 h -20.5 v 160.7 a 504.3 504.3 0 0 0 20.5 -21.1 z M 789.3 604.2 h -20.5 v 351.2 a 512.9 512.9 0 0 0 20.5 -12.5 V 604.2 z m -51.2 367.7 V 512 h -20.5 v 469.3 a 501.6 501.6 0 0 0 20.5 -9.5 z m -634.9 -152.6 V 768 h -20.5 v 21.6 a 512.6 512.6 0 0 0 20.5 29.6 z m 184.3 152.6 c 6.7 3.3 13.6 6.4 20.5 9.5 V 512 h -20.5 v 459.8 z m -102.4 -66.5 a 514.7 514.7 0 0 0 20.5 16.3 V 665.6 h -20.5 v 239.7 z m 51.2 37.5 c 6.7 4.3 13.5 8.5 20.5 12.5 V 604.2 h -20.5 v 338.7 z m -81.9 -65.3 V 716.8 h -20.5 v 139.6 a 517.6 517.6 0 0 0 20.5 21.1 z"
        fill="#f2f1ef" />
    <path
        d="M 961.8 758.2 C 802.2 679.9 686.9 463.8 686.9 286.7 h -30.7 c 0 188.5 121.3 413 290 497.7 a 500.5 500.5 0 0 0 15.6 -26.3 z m -897.9 0 c 4.9 8.9 10.1 17.7 15.6 26.3 C 248.2 699.7 369.5 475.2 369.5 286.7 h -30.7 c 0 177.1 -115.3 393.1 -274.9 471.5 z"
        fill="#cb4e44" />
    <path
        d="M 420.7 337.9 v 61.4 h 184.3 v -61.4 h -184.3 z m 0 245.8 h 184.3 v -61.4 h -184.3 v 61.4 z m 0 184.3 h 184.3 v -61.4 h -184.3 v 61.4 z"
        fill="#e87970" />
    <path
        d="M 420.7 399.4 h 20.5 v -61.4 h -20.5 v 61.4 z m 0 184.3 h 20.5 v -61.4 h -20.5 v 61.4 z m 0 184.3 h 20.5 v -61.4 h -20.5 v 61.4 z m 163.8 -430.1 v 61.4 h 20.5 v -61.4 h -20.5 z m 0 245.8 h 20.5 v -61.4 h -20.5 v 61.4 z m 0 184.3 h 20.5 v -61.4 h -20.5 v 61.4 z"
        fill="#d06d65" />
    <path
        d="M 955.3 254.5 c -8.2 -2.4 -17.2 -7.7 -17.2 -13.9 c 0 -2.6 1.7 -5 4.2 -7.2 A 514.9 514.9 0 0 0 820 102.4 h -41 a 20.5 20.5 0 0 0 0 41 h 61.4 a 15.4 15.4 0 0 1 0 30.7 h -15.4 a 25.6 25.6 0 1 0 0 51.2 h 46.1 a 15.4 15.4 0 0 1 0 30.7 h -112.6 a 30.7 30.7 0 0 0 0 61.4 h 227.9 a 509.6 509.6 0 0 0 -31.1 -62.9 z"
        fill="#b4e0ef" />
    <path
        d="M 164.7 237.5 H 82 C 72 253.1 62.8 269.2 54.5 285.8 c 1.5 2.3 2.3 5.1 2.3 8 c 0 7.7 -5.7 14 -13.2 15.1 C 37.8 322.5 32.5 336.2 27.8 350.2 h 85.7 C 124.6 349.9 133.5 340.8 133.5 329.7 C 133.5 318.6 124.6 309.5 113.5 309.2 C 105.1 309 98.5 302.2 98.5 293.8 C 98.5 285.5 105.1 278.7 113.5 278.5 h 51.2 C 176 278.5 185.1 269.3 185.1 258 C 185.1 246.7 176 237.5 164.7 237.5 z"
        fill="#a9dced" />
    <path
        d="M 666.4 268.1 V 215 a 20.5 20.5 0 0 0 -41 0 v 53.1 a 30.6 30.6 0 0 0 -20.5 28.8 v 718.6 a 508.6 508.6 0 0 0 81.9 -22 V 297 a 30.6 30.6 0 0 0 -20.5 -28.8 z m -266.2 0 V 215 a 20.5 20.5 0 0 0 -41 0 v 53.1 a 30.6 30.6 0 0 0 -20.5 28.8 v 696.6 a 508.9 508.9 0 0 0 81.9 22 V 297 a 30.6 30.6 0 0 0 -20.5 -28.8 z"
        fill="#e2574c" />
    <path
        d="M 625.5 1011.4 a 519.3 519.3 0 0 0 20.5 -5 V 317.4 h -20.5 v 694 z m 0 -765.7 h 41 v 20.5 h -41 z m 30.7 757.7 a 495.2 495.2 0 0 0 20.5 -6.5 V 317.4 h -20.5 v 686.1 z M 359.2 245.8 h 41 v 20.5 h -41 z m 20.5 760.6 c 6.8 1.8 13.6 3.5 20.5 5 V 317.4 h -20.5 v 689 z m -30.7 -9.3 c 6.8 2.3 13.6 4.4 20.5 6.5 V 317.4 h -20.5 v 679.6 z"
        fill="#cb4e44" />
    <path d="M 604.9 891 L 420.7 890.9 l -51.9 112.4 a 511.8 511.8 0 0 0 288.1 0 L 604.9 891 z" fill="#5f707a" />
    <path
        d="M 574.2 891 L 451.4 890.9 l -55.2 119.6 A 513.4 513.4 0 0 0 512.8 1024 c 40.1 0 79.1 -4.8 116.6 -13.5 l -55.3 -119.5 z"
        fill="#324d5b" />
    <path
        d="M 512.8 921.6 a 10.2 10.2 0 0 1 10.2 10.2 v 51.2 a 10.2 10.2 0 1 1 -20.5 0 v -51.2 a 10.2 10.2 0 0 1 10.2 -10.2 z"
        fill="#70838d" />
</svg>